<svg xmlns="http://www.w3.org/2000/svg" xmlns:xlink="http://www.w3.org/1999/xlink" xml:space="preserve" width="186px" height="186px" version="1.1" style="shape-rendering:geometricPrecision; text-rendering:geometricPrecision; image-rendering:optimizeQuality; fill-rule:evenodd; clip-rule:evenodd" viewBox="0 0 53.56 53.56">
 <defs>
  <style type="text/css">
   <![CDATA[
    .str0 {stroke:#07A56D;stroke-width:1.34;stroke-linecap:round;stroke-miterlimit:22.9256}
    .str1 {stroke:#666666;stroke-width:1.34;stroke-linecap:round;stroke-miterlimit:22.9256}
    .str2 {stroke:#07A56D;stroke-width:1.34;stroke-linecap:round;stroke-miterlimit:22.9256}
    .fil2 {fill:none}
    .fil0 {fill:#FEFEFE}
    .fil5 {fill:#07A56D}
    .fil1 {fill:#EEEEEE}
    .fil3 {fill:#07A56D;fill-rule:nonzero}
    .fil4 {fill:#B4E4D3;fill-rule:nonzero}
   ]]>
  </style>
 </defs>
 <g id="Слой_x0020_1">
  <metadata id="CorelCorpID_0Corel-Layer"/>
  <g id="_1860708023376">
   <g>
    <path class="fil0" d="M26.78 0c14.79,0 26.78,11.99 26.78,26.78 0,14.79 -11.99,26.78 -26.78,26.78 -14.79,0 -26.78,-11.99 -26.78,-26.78 0,-14.79 11.99,-26.78 26.78,-26.78z"/>
    <path id="1" class="fil1" d="M26.78 0c14.79,0 26.78,11.99 26.78,26.78 0,14.79 -11.99,26.78 -26.78,26.78 -14.79,0 -26.78,-11.99 -26.78,-26.78 0,-14.79 11.99,-26.78 26.78,-26.78zm17.52 9.26c-4.49,-4.48 -10.68,-7.25 -17.52,-7.25 -6.84,0 -13.03,2.77 -17.52,7.25 -4.48,4.49 -7.25,10.68 -7.25,17.52 0,6.84 2.77,13.03 7.25,17.52 4.49,4.48 10.68,7.25 17.52,7.25 6.84,0 13.03,-2.77 17.52,-7.25 4.48,-4.49 7.25,-10.68 7.25,-17.52 0,-6.84 -2.77,-13.03 -7.25,-17.52z"/>
   </g>
   <path class="fil2 str0" d="M28.79 39.5l-16.02 0c-1.5,0 -2.72,-1.22 -2.72,-2.71l0 -20.69c0,-1.49 1.22,-2.71 2.72,-2.71l28.02 0c1.5,0 2.71,1.22 2.72,2.71l0.01 5.32"/>
   <path class="fil2 str1" d="M46.16 30.55c-0.19,-0.9 -0.55,-1.74 -1.03,-2.48l0.97 -0.97 -2.24 -2.24 -0.97 0.97c-0.74,-0.48 -1.58,-0.83 -2.48,-1.03l0 -1.37 -3.16 0 0 1.37c-0.9,0.2 -1.74,0.55 -2.48,1.03l-0.97 -0.97 -2.24 2.24 0.97 0.97c-0.48,0.74 -0.83,1.58 -1.03,2.48l-1.37 0 0 3.16 1.37 0c0.2,0.9 0.55,1.74 1.03,2.48l-0.97 0.98 2.23 2.24 0.98 -0.98c0.74,0.48 1.58,0.84 2.48,1.03l0 1.38 3.16 0 0 -1.38c0.9,-0.19 1.74,-0.55 2.48,-1.03l0.98 0.98 2.23 -2.24 -0.97 -0.98c0.48,-0.74 0.84,-1.58 1.03,-2.48l1.37 0 0 -3.16 -1.37 0zm-7.33 5.26c-2.03,0 -3.67,-1.64 -3.67,-3.67 0,-2.03 1.64,-3.68 3.67,-3.68 2.03,0 3.68,1.65 3.68,3.68 0,2.03 -1.65,3.67 -3.68,3.67zm0 0z"/>
   <line class="fil2 str2" x1="10.04" y1="20.08" x2="43.49" y2="20.08"/>
   <g>
    <path class="fil3" d="M19.42 20.08c0,-0.36 0.3,-0.66 0.66,-0.66 0.37,0 0.67,0.3 0.67,0.66l-1.33 0zm0 19.42l0 -19.42 1.33 0 0 19.42 -1.33 0zm1.33 0c0,0.37 -0.3,0.67 -0.67,0.67 -0.36,0 -0.66,-0.3 -0.66,-0.67l1.33 0z"/>
   </g>
   <g>
    <polygon class="fil4" points="16.74,25.44 13.39,25.44 13.39,24.1 16.74,24.1 "/>
   </g>
   <g>
    <polygon class="fil4" points="16.74,30.13 13.39,30.13 13.39,28.79 16.74,28.79 "/>
   </g>
   <g>
    <polygon class="fil4" points="16.74,34.81 13.39,34.81 13.39,33.48 16.74,33.48 "/>
   </g>
   <g>
    <polygon class="fil5" points="39.5,16.07 40.83,16.07 40.83,17.4 39.5,17.4 "/>
   </g>
   <g>
    <polygon class="fil5" points="36.15,16.07 37.49,16.07 37.49,17.4 36.15,17.4 "/>
   </g>
   <g>
    <polygon class="fil5" points="32.81,16.07 34.14,16.07 34.14,17.4 32.81,17.4 "/>
   </g>
  </g>
 </g>
</svg>