<svg xmlns="http://www.w3.org/2000/svg" xmlns:xlink="http://www.w3.org/1999/xlink" xmlns:xodm="http://www.corel.com/coreldraw/odm/2003" xml:space="preserve" width="49.2124mm" height="49.2124mm" version="1.0" style="shape-rendering:geometricPrecision; text-rendering:geometricPrecision; image-rendering:optimizeQuality; fill-rule:evenodd; clip-rule:evenodd" viewBox="0 0 4921.24 4921.24">
 <defs>
  <style type="text/css">
   <![CDATA[
    .fil4 {fill:#B4E4D3}
    .fil1 {fill:#EEEEEE}
    .fil0 {fill:#FEFEFE}
    .fil2 {fill:#07A56D;fill-rule:nonzero}
    .fil3 {fill:#666666;fill-rule:nonzero}
   ]]>
  </style>
 </defs>
 <g id="Слой_x0020_1">
  <metadata id="CorelCorpID_0Corel-Layer"/>
  <g id="_1651666304">
   <path class="fil0" d="M2460.62 0c1359.04,0 2460.62,1101.59 2460.62,2460.62 0,1359.04 -1101.59,2460.62 -2460.62,2460.62 -1359.04,0 -2460.62,-1101.59 -2460.62,-2460.62 0,-1359.04 1101.59,-2460.62 2460.62,-2460.62z"/>
   <path id="_1" class="fil1" d="M2460.62 0c1359.04,0 2460.62,1101.59 2460.62,2460.62 0,1359.04 -1101.59,2460.62 -2460.62,2460.62 -1359.04,0 -2460.62,-1101.59 -2460.62,-2460.62 0,-1359.04 1101.59,-2460.62 2460.62,-2460.62zm1608.69 850.37c-411.92,-411.92 -979.88,-666.26 -1608.69,-666.26 -628.81,0 -1198.33,254.33 -1610.25,666.26 -411.92,411.92 -666.26,981.44 -666.26,1610.25 0,628.81 254.33,1196.77 666.26,1608.69 411.92,411.92 981.44,666.26 1610.25,666.26 628.81,0 1196.77,-254.33 1608.69,-666.26 411.92,-411.92 666.26,-979.88 666.26,-1608.69 0,-628.81 -254.33,-1198.33 -666.26,-1610.25z"/>
  </g>
  <g id="_1651666448">
   <path class="fil2" d="M2668.92 3975.69c0,-47.71 -19.26,-90.86 -50.37,-122.04 -31.19,-31.12 -74.33,-50.37 -122.04,-50.37 -47.71,0 -90.85,19.25 -122.04,50.37 -31.11,31.18 -50.37,74.33 -50.37,122.04 0,47.71 19.25,90.85 50.37,122.04 31.19,31.12 74.33,50.37 122.04,50.37 47.71,0 90.85,-19.25 122.04,-50.37 31.12,-31.19 50.37,-74.33 50.37,-122.04zm36.67 -208.84c53.5,53.52 86.61,127.37 86.61,208.84 0,81.47 -33.11,155.32 -86.61,208.84l-0.24 0.24c-53.52,53.5 -127.37,86.61 -208.84,86.61 -81.47,0 -155.32,-33.11 -208.84,-86.61l-0.24 -0.24c-53.5,-53.52 -86.61,-127.37 -86.61,-208.84 0,-81.47 33.11,-155.32 86.61,-208.84l0.24 -0.24c53.52,-53.5 127.37,-86.61 208.84,-86.61 81.47,0 155.32,33.11 208.84,86.61l0.24 0.24z"/>
   <path class="fil2" d="M2668.92 945.55c0,-47.71 -19.25,-90.85 -50.37,-122.04 -31.19,-31.12 -74.33,-50.37 -122.04,-50.37 -47.71,0 -90.85,19.25 -122.04,50.37 -31.12,31.19 -50.37,74.33 -50.37,122.04 0,47.71 19.26,90.86 50.37,122.04 31.19,31.12 74.33,50.37 122.04,50.37 47.71,0 90.85,-19.25 122.04,-50.37 31.11,-31.18 50.37,-74.33 50.37,-122.04zm36.67 -208.84c53.5,53.52 86.61,127.37 86.61,208.84 0,81.47 -33.11,155.32 -86.61,208.84l-0.24 0.24c-53.52,53.5 -127.37,86.61 -208.84,86.61 -81.47,0 -155.32,-33.11 -208.84,-86.61l-0.24 -0.24c-53.5,-53.52 -86.61,-127.37 -86.61,-208.84 0,-81.47 33.11,-155.32 86.61,-208.84l0.24 -0.24c53.52,-53.5 127.37,-86.61 208.84,-86.61 81.47,0 155.32,33.11 208.84,86.61l0.24 0.24z"/>
   <path class="fil2" d="M981.61 2632.48c47.52,0 90.56,-19.27 121.68,-50.39l0.12 0.12c31.06,-31.12 50.27,-74.19 50.27,-121.81 0,-47.53 -19.27,-90.57 -50.39,-121.69l0 -0.24c-30.98,-30.98 -74,-50.16 -121.68,-50.16 -47.69,0 -90.71,19.18 -121.69,50.16l-0.24 0.24c-30.98,30.98 -50.16,74 -50.16,121.69 0,47.52 19.26,90.55 50.4,121.69 31.12,31.12 74.17,50.39 121.69,50.39zm208.84 36.77c-53.44,53.44 -127.29,86.51 -208.84,86.51 -81.55,0 -155.41,-33.07 -208.85,-86.51 -53.45,-53.45 -86.52,-127.3 -86.52,-208.85 0,-81.29 33.07,-155.05 86.52,-208.61l0.24 -0.24c53.56,-53.45 127.32,-86.52 208.61,-86.52 81.33,0 155.14,33.11 208.72,86.64l0.12 -0.12c53.44,53.44 86.51,127.29 86.51,208.85 0,81.38 -33.07,155.16 -86.51,208.61l0 0.24z"/>
   <path class="fil2" d="M4010.96 2632.48c47.62,0 90.69,-19.21 121.81,-50.27 31.06,-31.12 50.27,-74.19 50.27,-121.81 0,-47.52 -19.27,-90.57 -50.39,-121.69 -31.14,-31.14 -74.17,-50.4 -121.69,-50.4 -47.69,0 -90.71,19.18 -121.69,50.16l-0.24 0.24c-30.98,30.98 -50.16,74 -50.16,121.69 0,47.52 19.26,90.55 50.4,121.69 31.12,31.12 74.17,50.39 121.69,50.39zm208.61 36.77c-53.45,53.44 -127.23,86.51 -208.61,86.51 -81.55,0 -155.41,-33.07 -208.85,-86.51 -53.45,-53.45 -86.52,-127.3 -86.52,-208.85 0,-81.29 33.07,-155.05 86.52,-208.61l0.24 -0.24c53.57,-53.46 127.34,-86.52 208.61,-86.52 81.55,0 155.4,33.07 208.85,86.52 53.44,53.44 86.51,127.3 86.51,208.85 0,81.38 -33.07,155.16 -86.51,208.61l-0.24 0.24z"/>
   <path class="fil2" d="M2950.26 1060.23c-32.31,-10.5 -49.99,-45.22 -39.49,-77.53 10.5,-32.31 45.22,-49.99 77.53,-39.49 239.58,77.96 454.01,210.06 628.79,382.61 174.41,172.2 309.33,384.58 390.33,623.56 10.9,32.17 -6.35,67.1 -38.52,78 -32.17,10.9 -67.1,-6.35 -78,-38.52 -74.8,-220.68 -199.23,-416.67 -360.01,-575.4 -161.32,-159.25 -359.33,-281.22 -580.63,-353.23z"/>
   <path class="fil2" d="M3986.44 1730.8c13.56,-31.11 49.79,-45.34 80.9,-31.78 31.11,13.56 45.34,49.79 31.78,80.9l-118.31 270.16 -269.97 -118.24c-31.11,-13.56 -45.34,-49.79 -31.78,-80.9 13.56,-31.11 49.79,-45.34 80.9,-31.78l157.57 69.01 68.91 -157.37z"/>
   <path class="fil2" d="M3896.9 2914.38c10.5,-32.31 45.22,-49.99 77.53,-39.49 32.31,10.5 49.99,45.22 39.49,77.53 -77.87,239.3 -210.14,453.5 -382.56,628.14 -172.49,174.72 -385.11,309.87 -623.61,390.98 -32.17,10.9 -67.1,-6.35 -78,-38.52 -10.9,-32.17 6.35,-67.1 38.52,-78 220.21,-74.89 416.4,-199.55 575.45,-360.66 159.15,-161.19 281.26,-358.97 353.18,-579.98z"/>
   <path class="fil2" d="M3225.01 3950.56c31.11,13.69 45.23,50.03 31.54,81.14 -13.69,31.11 -50.03,45.23 -81.14,31.54l-268.33 -118.39 118.21 -269.9c13.56,-31.11 49.79,-45.34 80.9,-31.78 31.11,13.56 45.34,49.79 31.78,80.9l-69.03 157.63 156.07 68.86z"/>
   <path class="fil2" d="M1096.12 2006.62c-10.37,32.31 -44.98,50.1 -77.29,39.73 -32.31,-10.37 -50.1,-44.98 -39.73,-77.29 77.84,-240.03 209.88,-454.07 381.93,-628.33 172.61,-174.84 385.46,-309.82 624.24,-391.03 32.17,-10.9 67.1,6.35 78,38.52 10.9,32.17 -6.35,67.1 -38.52,78 -220.5,74.99 -416.93,199.5 -576.08,360.71 -158.91,160.95 -280.8,358.44 -352.55,579.69z"/>
   <path class="fil2" d="M1766.68 970.68c-31.11,-13.56 -45.34,-49.79 -31.78,-80.9 13.56,-31.11 49.79,-45.34 80.9,-31.78l270.41 118.43 -118.48 268.54c-13.69,31.11 -50.03,45.23 -81.14,31.54 -31.11,-13.69 -45.23,-50.03 -31.54,-81.14l68.77 -155.87 -157.14 -68.82z"/>
   <path class="fil3" d="M2276.5 2012.81c0,32.77 -28.09,60.85 -62.41,60.85 -34.33,0 -60.85,-28.09 -60.85,-60.85l123.27 0 -0.01 0zm0 -39.01l0 39.01 -123.27 0 0 -39.01 0 0 123.27 0zm3.12 -127.95l0 121.7 0 0 0 0 0 0 0 0 0 0 0 0 0 0 0 1.56 -1.56 0 0 0 0 0 0 0 0 0 0 0 0 0 0 0 0 0 -1.56 0 0 0 0 0 0 1.56 0 0 0 0 0 0 0 0 0 0 0 1.56 0 0 0 0 0 0 0 0 0 0 0 1.56 -123.27 0 0 -6.24 0 -7.8 1.56 -6.24 0 -6.24 1.56 -6.24 1.56 -4.68 3.12 -6.24 1.56 -6.24 3.12 -6.24 1.56 -4.68 3.12 -6.24 4.68 -4.68 3.12 -4.68 3.12 -4.68 4.68 -4.68 3.12 -4.68 4.68 -4.68 4.68 -3.12 4.68 -4.68 4.68 -3.12 6.24 -3.12 4.68 -3.12 4.68 -3.12 6.24 -3.12 6.24 -1.56 6.24 -1.56 4.68 -3.12 7.8 -1.56 6.24 0 6.24 -1.56 6.24 0 6.24 0 0 0 0.03 -0.02zm1037.62 121.71l-1037.61 0 0 -121.7 1037.61 0 0 0 0 121.7zm127.94 6.24l-123.27 0 0 0 0 -1.56 0 0 0 0 0 0 0 0 0 0 0 -1.56 0 0 -1.56 0 0 0 0 0 0 0 0 -1.56 0 0 0 0 0 0 0 0 0 0 -1.56 0 0 0 0 0 0 0 0 0 0 0 0 0 0 -1.56 0 0 0 0 0 0 0 0 -1.56 0 0 0 0 -121.7 7.8 0 6.24 0 6.24 1.56 6.24 0 6.24 1.56 6.24 3.12 6.24 1.56 4.68 1.56 6.24 3.12 4.68 3.12 6.24 3.12 4.68 3.12 4.68 3.12 4.68 4.68 4.68 3.12 4.68 4.68 4.68 4.68 3.12 4.68 4.68 4.68 3.12 4.68 3.12 4.68 3.12 6.24 3.12 4.68 1.56 6.24 3.12 6.24 1.56 6.24 1.56 4.68 1.56 6.24 1.56 6.24 0 6.24 1.56 7.8 0 6.24 0 0 0.03 0.02zm-123.26 666.26l0 -666.26 123.27 0 0 666.26 0 0 -123.27 0zm-4.68 127.94l0 -123.27 0 0 0 0 1.56 0 0 0 0 0 0 0 0 0 0 0 0 0 0 0 0 0 0 0 0 0 0 0 0 0 1.56 -1.56 0 0 0 0 0 0 0 0 0 0 0 0 0 -1.56 0 0 1.56 0 0 0 0 0 0 0 0 -1.56 0 0 0 0 0 0 0 0 123.27 0 0 6.24 -1.56 6.24 0 6.24 -1.56 6.24 -1.56 6.24 -1.56 6.24 -1.56 6.24 -3.12 4.68 -1.56 6.24 -3.12 6.24 -3.12 4.68 -3.12 4.68 -3.12 6.24 -4.68 4.68 -3.12 3.12 -4.68 4.68 -4.68 4.68 -4.68 4.68 -4.68 3.12 -4.68 3.12 -4.68 4.68 -4.68 3.12 -6.24 1.56 -6.24 3.12 -4.68 3.12 -6.24 1.56 -6.24 1.56 -6.24 1.56 -6.24 1.56 -6.24 0 -6.24 1.56 -7.8 0 0 0 -0.03 0.03zm-179.44 -123.26l179.44 0 0 123.27 -179.44 0 -62.41 -62.41 62.41 -60.85 0 -0.01zm-62.41 60.85l0 -60.85 62.41 0 -62.41 60.85zm0 229.37l0 -229.37 123.27 0 0 229.37 -106.1 42.13 -17.16 -42.13 -0.01 0zm123.26 0l0 149.79 -106.1 -107.66 106.1 -42.13zm-241.85 -271.5l224.69 227.81 -88.94 85.82 -223.13 -227.81 87.38 -85.82zm-87.38 85.82c-23.4,-24.97 -23.4,-63.97 0,-87.38 24.97,-23.4 63.97,-23.4 87.38,1.56l-87.38 85.82z"/>
   <path class="fil0" d="M2702.47 2215.65l-1037.61 0c-35.89,0 -65.53,29.65 -65.53,65.53l0 666.26c0,37.45 29.65,67.09 65.53,67.09l181 0 0 227.81 223.13 -227.81 633.49 0c35.89,0 65.53,-29.65 65.53,-67.09l0 -666.26c0,-35.89 -29.65,-65.53 -65.53,-65.53l-0.01 0z"/>
   <path id="_1_0" class="fil2" d="M1664.86 2276.5l0 -123.27 1037.61 0 0 123.27 -1037.61 0zm-126.39 4.68l0 0 0 -6.24 0 -6.24 0 -6.24 1.56 -6.24 1.56 -6.24 1.56 -6.24 1.56 -6.24 3.12 -6.24 1.56 -4.68 3.12 -6.24 3.12 -4.68 3.12 -6.24 3.12 -4.68 4.68 -4.68 3.12 -4.68 4.68 -3.12 4.68 -4.68 4.68 -4.68 4.68 -3.12 4.68 -4.68 4.68 -3.12 6.24 -3.12 4.68 -3.12 6.24 -1.56 6.24 -3.12 4.68 -1.56 6.24 -1.56 6.24 -1.56 6.24 -1.56 6.24 0 7.8 -1.56 6.24 0 0 123.27 0 0 0 0 -1.56 0 0 0 1.56 0 -1.56 0 0 0 0 0 0 0 0 0 0 0 0 0 0 0 0 0 -1.56 1.56 0 0 0 0 0 0 0 0 0 0 0 0 0 0 0 1.56 0 0 0 0 0 0 -1.56 0 0 0 0 1.56 0 0 0 0 0 0 0 0 -121.7 0 0.02 -0.03zm121.71 666.26l-121.7 0 0 -666.26 121.7 0 0 666.26zm4.68 127.95l0 0 -6.24 0 -7.8 0 -6.24 -1.56 -6.24 0 -6.24 -1.56 -6.24 -3.12 -4.68 -1.56 -6.24 -1.56 -6.24 -3.12 -4.68 -3.12 -6.24 -3.12 -4.68 -3.12 -4.68 -3.12 -4.68 -4.68 -4.68 -3.12 -4.68 -4.68 -4.68 -4.68 -3.12 -4.68 -4.68 -4.68 -3.12 -4.68 -3.12 -6.24 -3.12 -4.68 -3.12 -6.24 -1.56 -4.68 -3.12 -6.24 -1.56 -6.24 -1.56 -6.24 -1.56 -4.68 -1.56 -6.24 0 -7.8 0 -6.24 0 -6.24 121.7 0 0 0 0 1.56 0 0 0 0 0 0 1.56 0 0 0 0 1.56 0 0 0 0 0 0 0 0 0 0 0 0 0 1.56 0 0 0 0 1.56 0 0 0 0 0 0 0 0 0 0 0 0 0 0 0 0 0 1.56 0 -1.56 0 0 0 1.56 0 0 0 0 0 0 0 0 123.27 -0.02 -0.03zm180.99 -123.27l60.85 62.41 -60.85 60.85 -181 0 0 -123.27 181 0 0 0.01zm0 0l60.85 0 0 62.41 -60.85 -62.41zm60.86 290.22l-17.16 43.69 -106.1 -43.69 0 -227.81 123.27 0 0 227.81 -0.01 0zm-17.17 43.69l-106.1 107.66 0 -151.35 106.1 43.69zm135.75 -315.19l43.69 -18.72 43.69 104.54 -223.13 229.37 -88.94 -85.82 224.69 -229.37zm0 0l18.72 -18.72 24.97 0 -43.69 18.72zm677.18 -18.72l0 123.27 -633.49 0 0 -123.27 633.49 0zm126.39 -4.68l0 0 0 6.24 0 6.24 -1.56 7.8 0 6.24 -1.56 4.68 -1.56 6.24 -3.12 6.24 -1.56 6.24 -3.12 6.24 -1.56 4.68 -3.12 4.68 -3.12 6.24 -4.68 4.68 -3.12 4.68 -4.68 4.68 -3.12 4.68 -4.68 4.68 -4.68 3.12 -4.68 4.68 -4.68 3.12 -4.68 3.12 -6.24 3.12 -4.68 3.12 -6.24 3.12 -6.24 1.56 -4.68 1.56 -6.24 3.12 -6.24 1.56 -6.24 0 -6.24 1.56 -7.8 0 -6.24 0 0 -123.27 0 0 0 0 0 0 1.56 0 -1.56 0 0 0 1.56 0 0 0 0 0 0 0 0 0 0 0 0 0 0 0 0 0 1.56 0 0 0 0 0 0 -1.56 0 0 0 0 0 0 0 0 0 0 0 -1.56 0 0 0 0 0 0 1.56 0 0 0 0 -1.56 0 0 0 0 121.7 0 -0.02 0.03zm-121.71 -666.26l121.7 0 0 666.26 -121.7 0 0 -666.26zm-4.68 -127.94l0 0 6.24 0 7.8 1.56 6.24 0 6.24 1.56 6.24 1.56 6.24 1.56 4.68 1.56 6.24 3.12 6.24 1.56 4.68 3.12 6.24 3.12 4.68 3.12 4.68 4.68 4.68 3.12 4.68 4.68 4.68 4.68 3.12 3.12 4.68 4.68 3.12 4.68 4.68 4.68 3.12 6.24 3.12 4.68 1.56 6.24 3.12 4.68 1.56 6.24 3.12 6.24 1.56 6.24 1.56 6.24 0 6.24 1.56 6.24 0 6.24 0 6.24 -121.7 0 0 0 0 0 0 0 -1.56 -1.56 0 0 0 0 0 0 0 0 0 0 0 -1.56 0 0 0 0 0 0 0 0 0 0 0 0 -1.56 0 0 -1.56 0 0 0 0 0 0 0 0 0 0 0 0 0 0 -1.56 0 0 0 1.56 0 -1.56 0 0 0 0 0 0 0 0 0 0 -123.27 0.02 0.03z"/>
   <circle class="fil4" cx="1906.71" cy="2615.09" r="81.13"/>
   <circle class="fil4" cx="2189.12" cy="2615.09" r="81.13"/>
   <circle class="fil4" cx="2471.54" cy="2615.09" r="81.13"/>
  </g>
 </g>
</svg>