<svg xmlns="http://www.w3.org/2000/svg" xmlns:xlink="http://www.w3.org/1999/xlink" xml:space="preserve" width="186px" height="186px" version="1.1" style="shape-rendering:geometricPrecision; text-rendering:geometricPrecision; image-rendering:optimizeQuality; fill-rule:evenodd; clip-rule:evenodd" viewBox="0 0 22.21 22.21">
 <defs>
  <style type="text/css">
   <![CDATA[
    .str3 {stroke:#07A56D;stroke-width:0.56;stroke-linecap:round;stroke-miterlimit:22.9256}
    .str2 {stroke:#07A56D;stroke-width:0.56;stroke-linecap:round;stroke-miterlimit:22.9256}
    .str0 {stroke:#07A56D;stroke-width:0.56;stroke-linecap:round;stroke-miterlimit:22.9256}
    .str1 {stroke:#666666;stroke-width:0.56;stroke-linecap:round;stroke-miterlimit:22.9256}
    .fil2 {fill:none}
    .fil3 {fill:#FEFEFE}
    .fil0 {fill:#FEFEFE}
    .fil5 {fill:#B4E4D3}
    .fil1 {fill:#EEEEEE}
    .fil4 {fill:#07A56D;fill-rule:nonzero}
   ]]>
  </style>
 </defs>
 <g id="Слой_x0020_1">
  <metadata id="CorelCorpID_0Corel-Layer"/>
  <g id="_1860894647248">
   <g>
    <path class="fil0" d="M11.11 0c6.13,0 11.1,4.97 11.1,11.11 0,6.13 -4.97,11.1 -11.1,11.1 -6.14,0 -11.11,-4.97 -11.11,-11.1 0,-6.14 4.97,-11.11 11.11,-11.11z"/>
    <path id="1" class="fil1" d="M11.11 0c6.13,0 11.1,4.97 11.1,11.11 0,6.13 -4.97,11.1 -11.1,11.1 -6.14,0 -11.11,-4.97 -11.11,-11.1 0,-6.14 4.97,-11.11 11.11,-11.11zm7.26 3.84c-1.86,-1.86 -4.43,-3.01 -7.26,-3.01 -2.84,0 -5.41,1.15 -7.27,3.01 -1.86,1.86 -3.01,4.43 -3.01,7.27 0,2.83 1.15,5.4 3.01,7.26 1.86,1.86 4.43,3.01 7.27,3.01 2.83,0 5.4,-1.15 7.26,-3.01 1.86,-1.86 3.01,-4.43 3.01,-7.26 0,-2.84 -1.15,-5.41 -3.01,-7.27z"/>
   </g>
   <g id="_1860894648560">
    <path class="fil2 str0" d="M8.3 13c0,-1.66 1.34,-3 3,-3 1.67,0 3.01,1.34 3.01,3l-6.01 0z"/>
    <g>
     <g>
      <polygon class="fil3" points="9.96,13 4.44,12.33 4.44,16.35 9.96,15.68 "/>
      <path id="1" class="fil4" d="M4.48 12.06l5.51 0.67 -0.07 0.55 -5.51 -0.67 -0.25 -0.28 0.32 -0.27zm-0.32 0.27l0 -0.31 0.32 0.04 -0.32 0.27zm0 4.02l0 -4.02 0.56 0 0 4.02 -0.24 0.27 -0.32 -0.27zm0.32 0.27l-0.32 0.04 0 -0.31 0.32 0.27zm5.51 -0.67l-5.51 0.67 -0.07 -0.55 5.51 -0.67 0.31 0.28 -0.24 0.27zm0.24 -0.27l0 0.24 -0.24 0.03 0.24 -0.27zm0 -2.68l0 2.68 -0.55 0 0 -2.68 0.31 -0.27 0.24 0.27zm-0.24 -0.27l0.24 0.03 0 0.24 -0.24 -0.27z"/>
     </g>
     <g>
      <polygon class="fil3" points="12.65,13 18.05,12.33 18.05,16.35 12.65,15.68 "/>
      <path id="1" class="fil4" d="M18.08 12.61l-5.39 0.67 -0.07 -0.55 5.4 -0.67 0.31 0.27 -0.25 0.28zm-0.06 -0.55l0.31 -0.04 0 0.31 -0.31 -0.27zm-0.25 4.29l0 -4.02 0.56 0 0 4.02 -0.31 0.27 -0.25 -0.27zm0.56 0l0 0.31 -0.31 -0.04 0.31 -0.27zm-5.64 -0.95l5.39 0.67 -0.06 0.55 -5.4 -0.67 -0.24 -0.27 0.31 -0.28zm-0.07 0.55l-0.24 -0.03 0 -0.24 0.24 0.27zm0.31 -2.95l0 2.68 -0.55 0 0 -2.68 0.24 -0.27 0.31 0.27zm-0.55 0l0 -0.24 0.24 -0.03 -0.24 0.27z"/>
     </g>
    </g>
    <g>
     <path class="fil4" d="M11.37 4.44l-2.67 0.69 -0.14 -0.54 2.68 -0.69 0.13 0 0 0.54zm-0.13 -0.54l0.06 -0.02 0.07 0.02 -0.13 0zm2.67 1.23l-2.67 -0.69 0.13 -0.54 2.68 0.69 0 0.54 -0.14 0zm0.14 -0.54l1.04 0.27 -1.04 0.27 0 -0.54zm-2.81 0.69l2.67 -0.69 0.14 0.54 -2.68 0.69 -0.13 0 0 -0.54zm0.13 0.54l-0.07 0.02 -0.06 -0.02 0.13 0zm-2.67 -1.23l2.67 0.69 -0.13 0.54 -2.68 -0.69 0 -0.54 0.14 0zm-0.14 0.54l-1.04 -0.27 1.04 -0.27 0 0.54z"/>
    </g>
    <path class="fil2 str0" d="M12.97 6.87c0.21,0.32 0.34,0.71 0.34,1.12 0,1.11 -0.9,2.01 -2.01,2.01 -1.1,0 -2,-0.9 -2,-2.01 0,-0.41 0.12,-0.79 0.33,-1.11l3.34 -0.01z"/>
    <path class="fil2 str0" d="M12.97 6.87c0,0 0,0.01 0.01,0.01l0 -1.65 -1.68 0.42 -1.67 -0.42 0 1.65 3.34 -0.01z"/>
    <g>
     <path class="fil2 str1" d="M5.29 7.66c0.43,-0.22 0.75,-0.59 0.9,-1.05l0.1 -0.29 0.1 0.29c0.15,0.46 0.48,0.83 0.9,1.05 -0.42,0.21 -0.75,0.59 -0.9,1.04l-0.1 0.29 -0.1 -0.29c-0.15,-0.45 -0.47,-0.83 -0.9,-1.04z"/>
     <path class="fil2 str1" d="M15.32 9.66c0.42,-0.21 0.75,-0.59 0.9,-1.04l0.1 -0.3 0.1 0.3c0.15,0.45 0.47,0.83 0.9,1.04 -0.43,0.22 -0.75,0.59 -0.9,1.04l-0.1 0.3 -0.1 -0.3c-0.15,-0.45 -0.48,-0.82 -0.9,-1.04z"/>
    </g>
    <g>
     <g>
      <path class="fil5" d="M11.3 17.57l1.1 0.45c0.2,0.08 0.43,-0.07 0.43,-0.29l0 -2.18 -3.05 0 0 2.18c0,0.22 0.22,0.37 0.43,0.29l1.09 -0.45zm0 0z"/>
      <path id="1" class="fil4" d="M12.3 18.28l-1.1 -0.45 0.21 -0.51 1.1 0.44 -0.21 0.52zm0.25 -0.55l0.56 0 0 0 0 0.04 -0.01 0.04 0 0.04 -0.01 0.03 -0.01 0.04 -0.02 0.03 -0.01 0.04 -0.02 0.03 -0.01 0.03 -0.02 0.03 -0.03 0.03 -0.02 0.02 -0.02 0.03 -0.03 0.02 -0.03 0.02 -0.02 0.02 -0.03 0.02 -0.03 0.02 -0.03 0.01 -0.04 0.02 -0.03 0.01 -0.03 0.01 -0.04 0 -0.03 0.01 -0.04 0 -0.04 0 -0.03 0 -0.04 0 -0.04 -0.01 -0.03 -0.01 -0.04 -0.01 -0.03 -0.01 0.21 -0.52 0 0.01 0 0 0 0 0 0 0.01 0 0 0 0 0 0 0 0 0 0 0 0.01 0 0 0 0 -0.01 0 0 0 0 0.01 0 0 0 0 0 0 0 0 0 0 -0.01 0.01 0 0 0 0 0 0 0 0 0 0 -0.01 0 0 0 0 0 0 0 0 0 -0.01 0 0zm0.56 -2.18l0 2.18 -0.56 0 0 -2.18 0.28 -0.27 0.28 0.27zm-0.28 -0.27l0.28 0 0 0.27 -0.28 -0.27zm-3.05 0l3.05 0 0 0.55 -3.05 0 -0.28 -0.28 0.28 -0.27zm-0.28 0.27l0 -0.27 0.28 0 -0.28 0.27zm0 2.18l0 -2.18 0.56 0 0 2.18 0 0 -0.56 0zm0.6 0.03l0.21 0.52 0 0 -0.03 0.01 -0.04 0.01 -0.03 0.01 -0.04 0.01 -0.04 0 -0.03 0 -0.04 0 -0.04 0 -0.03 -0.01 -0.04 0 -0.03 -0.01 -0.03 -0.01 -0.04 -0.02 -0.03 -0.01 -0.03 -0.02 -0.03 -0.02 -0.02 -0.02 -0.03 -0.02 -0.03 -0.02 -0.02 -0.03 -0.02 -0.02 -0.03 -0.03 -0.02 -0.03 -0.01 -0.03 -0.02 -0.03 -0.01 -0.04 -0.02 -0.03 -0.01 -0.04 -0.01 -0.03 0 -0.04 -0.01 -0.04 0 -0.04 0.56 0 0 0.01 0 0 0 0 0 0 0 0 0 0.01 0 0 0 0 0 0 0 0 0.01 0 0 0.01 0 0 0 0 0 0 0 0 0.01 0 0 0 0 0 0 0.01 0 0 0 0 0.01 0 0 0 0 0 0 0 0 0 0.01 0 0 0 0 0 0 0 0 -0.01 0 0zm1.31 0.07l-1.1 0.45 -0.21 -0.52 1.1 -0.44 0.21 0 0 0.51zm-0.21 -0.51l0.1 -0.05 0.11 0.05 -0.21 0z"/>
     </g>
     <path class="fil5 str2" d="M13.3 14.34c0,1.1 -0.9,1.99 -2,1.99 -1.09,0 -1.99,-0.89 -1.99,-1.99 0,-1.1 0.9,-1.99 1.99,-1.99 1.1,0 2,0.89 2,1.99zm0 0z"/>
     <path class="fil3 str3" d="M11.3 13.56c-0.42,0 -0.77,0.35 -0.77,0.78 0,0.43 0.35,0.78 0.77,0.78 0.43,0 0.78,-0.35 0.78,-0.78 0,-0.43 -0.35,-0.78 -0.78,-0.78z"/>
    </g>
   </g>
  </g>
 </g>
</svg>