<svg xmlns="http://www.w3.org/2000/svg" xmlns:xlink="http://www.w3.org/1999/xlink" xml:space="preserve" width="186px" height="186px" version="1.1" style="shape-rendering:geometricPrecision; text-rendering:geometricPrecision; image-rendering:optimizeQuality; fill-rule:evenodd; clip-rule:evenodd" viewBox="0 0 31.28 31.28">
 <defs>
  <style type="text/css">
   <![CDATA[
    .str0 {stroke:#07A56D;stroke-width:0.78;stroke-linecap:round;stroke-miterlimit:22.9256}
    .fil0 {fill:#FEFEFE}
    .fil2 {fill:#B4E4D3}
    .fil1 {fill:#EEEEEE}
    .fil3 {fill:#07A56D;fill-rule:nonzero}
    .fil4 {fill:#666666;fill-rule:nonzero}
   ]]>
  </style>
 </defs>
 <g id="Слой_x0020_1">
  <metadata id="CorelCorpID_0Corel-Layer"/>
  <g id="_1860660859488">
   <g>
    <path class="fil0" d="M15.64 0c8.64,0 15.64,7 15.64,15.64 0,8.64 -7,15.64 -15.64,15.64 -8.64,0 -15.64,-7 -15.64,-15.64 0,-8.64 7,-15.64 15.64,-15.64z"/>
    <path id="1" class="fil1" d="M15.64 0c8.64,0 15.64,7 15.64,15.64 0,8.64 -7,15.64 -15.64,15.64 -8.64,0 -15.64,-7 -15.64,-15.64 0,-8.64 7,-15.64 15.64,-15.64zm10.23 5.41c-2.62,-2.62 -6.23,-4.24 -10.23,-4.24 -3.99,0 -7.61,1.62 -10.23,4.24 -2.62,2.62 -4.24,6.24 -4.24,10.23 0,4 1.62,7.61 4.24,10.23 2.62,2.62 6.24,4.24 10.23,4.24 4,0 7.61,-1.62 10.23,-4.24 2.62,-2.62 4.24,-6.23 4.24,-10.23 0,-3.99 -1.62,-7.61 -4.24,-10.23z"/>
   </g>
   <g>
    <path class="fil2" d="M17.5 26.79l-4.77 0 0 -1.05c0,-1.1 -0.23,-2.18 -0.68,-3.19 -0.45,-1 -0.68,-2.09 -0.68,-3.19l0 -0.36c0,-2.25 1.83,-4.07 4.09,-4.07 2.26,0 4.09,1.82 4.09,4.07l1.36 3.04 -1.36 0 0 2.71 -2.05 0 0 2.04z"/>
    <path id="1" class="fil3" d="M12.73 26.39l4.77 0 0 0.79 -4.77 0 -0.39 -0.39 0.39 -0.4zm0 0.79l-0.39 0 0 -0.39 0.39 0.39zm0.39 -1.44l0 1.05 -0.78 0 0 -1.05 0 0 0.78 0zm-1.42 -3.03l0.71 -0.32 0 0 0.04 0.1 0.04 0.1 0.04 0.1 0.04 0.1 0.04 0.1 0.04 0.1 0.03 0.11 0.04 0.1 0.03 0.1 0.03 0.1 0.03 0.11 0.03 0.1 0.03 0.11 0.02 0.1 0.03 0.11 0.02 0.1 0.02 0.11 0.02 0.1 0.02 0.11 0.02 0.1 0.02 0.11 0.01 0.11 0.01 0.1 0.02 0.11 0.01 0.11 0.01 0.11 0 0.1 0.01 0.11 0.01 0.11 0 0.11 0 0.11 0 0.1 -0.78 0 0 -0.09 0 -0.1 0 -0.1 -0.01 -0.1 0 -0.09 -0.01 -0.1 -0.01 -0.1 -0.01 -0.1 -0.01 -0.09 -0.01 -0.1 -0.01 -0.1 -0.02 -0.09 -0.02 -0.1 -0.01 -0.09 -0.02 -0.1 -0.02 -0.1 -0.02 -0.09 -0.02 -0.1 -0.03 -0.09 -0.02 -0.09 -0.03 -0.1 -0.03 -0.09 -0.02 -0.09 -0.03 -0.1 -0.03 -0.09 -0.04 -0.09 -0.03 -0.09 -0.03 -0.1 -0.04 -0.09 -0.04 -0.09 -0.03 -0.09 -0.04 -0.09 0 0zm-0.72 -3.35l0.78 0 0 0 0 0.1 0 0.1 0 0.1 0.01 0.09 0 0.1 0.01 0.1 0.01 0.09 0.01 0.1 0.01 0.1 0.01 0.1 0.02 0.09 0.01 0.1 0.02 0.09 0.01 0.1 0.02 0.1 0.02 0.09 0.02 0.1 0.03 0.09 0.02 0.1 0.02 0.09 0.03 0.09 0.03 0.1 0.03 0.09 0.02 0.09 0.04 0.1 0.03 0.09 0.03 0.09 0.04 0.09 0.03 0.09 0.04 0.09 0.04 0.09 0.04 0.09 -0.71 0.32 -0.05 -0.1 -0.04 -0.1 -0.04 -0.1 -0.04 -0.1 -0.04 -0.1 -0.04 -0.1 -0.03 -0.1 -0.04 -0.1 -0.03 -0.11 -0.03 -0.1 -0.03 -0.1 -0.03 -0.11 -0.03 -0.1 -0.02 -0.11 -0.03 -0.1 -0.02 -0.11 -0.02 -0.1 -0.02 -0.11 -0.02 -0.1 -0.02 -0.11 -0.01 -0.1 -0.02 -0.11 -0.01 -0.11 -0.01 -0.11 -0.02 -0.1 0 -0.11 -0.01 -0.11 -0.01 -0.11 0 -0.1 -0.01 -0.11 0 -0.11 0 -0.11 0 0zm0.78 -0.36l0 0.36 -0.78 0 0 -0.36 0 0 0.78 0zm3.7 -4.46l0 0.79 0 0 -0.19 0 -0.19 0.01 -0.19 0.03 -0.18 0.03 -0.18 0.04 -0.17 0.05 -0.18 0.06 -0.16 0.06 -0.17 0.08 -0.16 0.08 -0.15 0.09 -0.15 0.09 -0.15 0.11 -0.14 0.11 -0.13 0.11 -0.13 0.12 -0.12 0.13 -0.12 0.13 -0.11 0.14 -0.1 0.15 -0.1 0.15 -0.09 0.15 -0.08 0.16 -0.07 0.16 -0.07 0.17 -0.06 0.17 -0.05 0.17 -0.04 0.18 -0.03 0.18 -0.02 0.18 -0.02 0.19 0 0.19 -0.78 0 0.01 -0.23 0.01 -0.23 0.03 -0.22 0.04 -0.22 0.05 -0.22 0.06 -0.21 0.07 -0.2 0.08 -0.21 0.09 -0.19 0.1 -0.2 0.11 -0.18 0.12 -0.18 0.12 -0.18 0.13 -0.17 0.14 -0.16 0.15 -0.15 0.16 -0.15 0.16 -0.14 0.17 -0.13 0.18 -0.13 0.18 -0.11 0.18 -0.11 0.2 -0.1 0.2 -0.09 0.2 -0.08 0.21 -0.07 0.21 -0.06 0.22 -0.05 0.22 -0.04 0.22 -0.02 0.23 -0.02 0.23 -0.01 0 0zm4.44 4.3l-0.71 0.32 -0.03 -0.16 -0.01 -0.19 -0.01 -0.19 -0.03 -0.18 -0.03 -0.18 -0.04 -0.18 -0.05 -0.17 -0.06 -0.17 -0.06 -0.17 -0.08 -0.16 -0.08 -0.16 -0.09 -0.15 -0.09 -0.15 -0.11 -0.15 -0.11 -0.14 -0.11 -0.13 -0.13 -0.13 -0.12 -0.12 -0.14 -0.11 -0.14 -0.11 -0.14 -0.11 -0.15 -0.09 -0.16 -0.09 -0.16 -0.08 -0.16 -0.08 -0.17 -0.06 -0.17 -0.06 -0.18 -0.05 -0.18 -0.04 -0.18 -0.03 -0.18 -0.03 -0.19 -0.01 -0.19 0 0 -0.79 0.23 0.01 0.22 0.02 0.23 0.02 0.22 0.04 0.22 0.05 0.21 0.06 0.21 0.07 0.2 0.08 0.2 0.09 0.19 0.1 0.19 0.11 0.18 0.11 0.17 0.13 0.17 0.13 0.17 0.14 0.15 0.15 0.15 0.15 0.14 0.16 0.13 0.17 0.13 0.18 0.12 0.18 0.1 0.18 0.1 0.2 0.09 0.19 0.08 0.21 0.07 0.2 0.06 0.21 0.05 0.22 0.04 0.22 0.03 0.22 0.02 0.23 0 0.23 -0.03 -0.16zm-0.71 0.32l-0.03 -0.08 0 -0.08 0.03 0.16zm1.36 3.04l-1.36 -3.04 0.71 -0.32 1.36 3.04 -0.35 0.55 -0.36 -0.23zm0.71 -0.32l0.25 0.55 -0.6 0 0.35 -0.55zm-1.71 -0.23l1.36 0 0 0.78 -1.36 0 -0.39 -0.39 0.39 -0.39zm-0.39 0.39l0 -0.39 0.39 0 -0.39 0.39zm0 2.71l0 -2.71 0.77 0 0 2.71 -0.38 0.39 -0.39 -0.39zm0.77 0l0 0.39 -0.38 0 0.38 -0.39zm-2.43 -0.39l2.05 0 0 0.78 -2.05 0 -0.39 -0.39 0.39 -0.39zm-0.39 0.39l0 -0.39 0.39 0 -0.39 0.39zm0 2.04l0 -2.04 0.78 0 0 2.04 -0.39 0.39 -0.39 -0.39zm0.78 0l0 0.39 -0.39 0 0.39 -0.39z"/>
   </g>
   <g>
    <g>
     <path class="fil0" d="M7.83 7.23l-1.54 0 0.02 9.39 18.75 0 0 -9.39 -1.61 0 -15.62 0zm0 0l0 0 0 0z"/>
     <path id="1" class="fil3" d="M7.83 6.85c0.21,0 0.39,0.17 0.39,0.38 0,0.22 -0.18,0.39 -0.39,0.39l0 -0.77zm-1.54 -0.01l1.54 0.01 0 0.77 -1.54 0 -0.4 -0.38 0.4 -0.4zm-0.4 0.4l0 -0.4 0.4 0 -0.4 0.4zm0.03 9.38l-0.03 -9.38 0.79 -0.01 0.02 9.39 -0.39 0.39 -0.39 -0.39zm0.39 0.39l-0.39 0 0 -0.39 0.39 0.39zm18.75 0l-18.75 0 0 -0.78 18.75 0 0.39 0.39 -0.39 0.39zm0.39 -0.39l0 0.39 -0.39 0 0.39 -0.39zm0 -9.39l0 9.39 -0.79 0 0 -9.39 0.39 -0.39 0.4 0.39zm-0.4 -0.39l0.4 0 0 0.39 -0.4 -0.39zm-1.6 0.01l1.6 -0.01 0.01 0.78 -1.61 0 0 -0.77zm0 0.77c-0.21,0 -0.39,-0.17 -0.39,-0.39 0,-0.21 0.18,-0.38 0.39,-0.38l0 0.77zm-15.62 -0.39l0 0 0 0 0 0zm0 0l0 0 0 0 0 0z"/>
    </g>
    <path class="fil0 str0" d="M9.02 6.45l-1.17 0 0 9 1.54 0c2.1,0 4.17,0.28 6.25,0.54 2.08,-0.26 4.21,-0.54 6.31,-0.54l1.54 0 0.01 -9 -1.18 0 -6.68 1.72 -6.62 -1.72z"/>
    <g>
     <path class="fil0" d="M15.67 7.26c-1.19,-1.03 -2.67,-1.59 -4.2,-1.59l-2.06 0 0 8.6 2.06 0c1.53,0 3.01,0.69 4.2,1.72 1.19,-1.03 2.67,-1.72 4.2,-1.72l2.06 0 0 -8.6 -2.06 0c-1.53,0 -3.01,0.56 -4.2,1.59z"/>
     <path id="1" class="fil3" d="M11.47 6.06l0 -0.78 0 0 0.16 0 0.15 0 0.15 0.01 0.15 0.02 0.15 0.01 0.15 0.02 0.15 0.02 0.15 0.03 0.14 0.03 0.15 0.03 0.15 0.03 0.14 0.04 0.15 0.05 0.14 0.04 0.14 0.05 0.15 0.05 0.14 0.06 0.14 0.05 0.13 0.07 0.14 0.06 0.14 0.07 0.13 0.07 0.13 0.07 0.14 0.08 0.13 0.08 0.13 0.08 0.12 0.09 0.13 0.09 0.12 0.09 0.13 0.09 0.12 0.1 0.12 0.1 -0.52 0.59 -0.1 -0.09 -0.11 -0.08 -0.11 -0.09 -0.11 -0.08 -0.11 -0.08 -0.11 -0.07 -0.12 -0.08 -0.11 -0.07 -0.12 -0.07 -0.12 -0.06 -0.12 -0.06 -0.12 -0.06 -0.12 -0.06 -0.12 -0.06 -0.13 -0.05 -0.12 -0.05 -0.13 -0.04 -0.12 -0.04 -0.13 -0.04 -0.13 -0.04 -0.13 -0.04 -0.12 -0.03 -0.13 -0.03 -0.14 -0.02 -0.13 -0.02 -0.13 -0.02 -0.13 -0.02 -0.13 -0.01 -0.14 -0.01 -0.13 -0.01 -0.13 -0.01 -0.14 0 0 0zm-2.06 -0.78l2.06 0 0 0.78 -2.06 0 -0.39 -0.39 0.39 -0.39zm-0.39 0.39l0 -0.39 0.39 0 -0.39 0.39zm0 8.6l0 -8.6 0.78 0 0 8.6 -0.39 0.39 -0.39 -0.39zm0.39 0.39l-0.39 0 0 -0.39 0.39 0.39zm2.06 0l-2.06 0 0 -0.78 2.06 0 0 0 0 0.78zm3.95 1.03l0.5 0.59 -0.51 0 -0.1 -0.09 -0.11 -0.09 -0.11 -0.08 -0.11 -0.09 -0.12 -0.08 -0.11 -0.08 -0.12 -0.08 -0.11 -0.07 -0.12 -0.08 -0.12 -0.07 -0.12 -0.07 -0.12 -0.06 -0.12 -0.06 -0.13 -0.06 -0.12 -0.06 -0.12 -0.05 -0.13 -0.06 -0.13 -0.05 -0.12 -0.04 -0.13 -0.04 -0.13 -0.04 -0.13 -0.04 -0.13 -0.03 -0.13 -0.03 -0.13 -0.03 -0.13 -0.02 -0.13 -0.02 -0.13 -0.02 -0.13 -0.01 -0.13 -0.01 -0.13 0 -0.14 -0.01 0 -0.78 0.16 0 0.15 0.01 0.15 0.01 0.16 0.01 0.15 0.02 0.15 0.03 0.15 0.02 0.15 0.03 0.15 0.04 0.14 0.03 0.15 0.05 0.15 0.04 0.14 0.05 0.14 0.05 0.15 0.05 0.14 0.06 0.14 0.06 0.14 0.07 0.14 0.06 0.13 0.07 0.14 0.08 0.13 0.07 0.13 0.08 0.14 0.08 0.12 0.09 0.13 0.08 0.13 0.09 0.12 0.09 0.13 0.1 0.12 0.09 0.12 0.1 0.12 0.1 -0.51 0zm0.5 0.59l-0.25 0.22 -0.26 -0.22 0.51 0zm3.95 -2.4l0 0.78 0 0 -0.14 0.01 -0.13 0 -0.13 0.01 -0.13 0.01 -0.13 0.02 -0.13 0.02 -0.13 0.02 -0.13 0.03 -0.13 0.03 -0.13 0.03 -0.13 0.04 -0.13 0.04 -0.13 0.04 -0.12 0.04 -0.13 0.05 -0.12 0.05 -0.13 0.06 -0.12 0.06 -0.13 0.06 -0.12 0.06 -0.12 0.06 -0.12 0.07 -0.12 0.07 -0.12 0.08 -0.11 0.07 -0.12 0.08 -0.11 0.08 -0.12 0.08 -0.11 0.09 -0.11 0.08 -0.11 0.09 -0.11 0.09 -0.5 -0.59 0.11 -0.1 0.12 -0.1 0.12 -0.09 0.13 -0.1 0.12 -0.09 0.13 -0.09 0.13 -0.08 0.13 -0.09 0.13 -0.08 0.13 -0.08 0.13 -0.07 0.14 -0.08 0.13 -0.07 0.14 -0.06 0.14 -0.07 0.14 -0.06 0.14 -0.06 0.15 -0.05 0.14 -0.05 0.14 -0.05 0.15 -0.04 0.15 -0.05 0.14 -0.03 0.15 -0.04 0.15 -0.03 0.15 -0.02 0.15 -0.03 0.15 -0.02 0.16 -0.01 0.15 -0.01 0.15 -0.01 0.16 0 0 0zm2.06 0.78l-2.06 0 0 -0.78 2.06 0 0.39 0.39 -0.39 0.39zm0.39 -0.39l0 0.39 -0.39 0 0.39 -0.39zm0 -8.6l0 8.6 -0.78 0 0 -8.6 0.39 -0.39 0.39 0.39zm-0.39 -0.39l0.39 0 0 0.39 -0.39 -0.39zm-2.06 0l2.06 0 0 0.78 -2.06 0 0 0 0 -0.78zm-4.46 2.27l0.52 -0.59 -0.51 0 0.11 -0.1 0.12 -0.1 0.13 -0.09 0.12 -0.09 0.13 -0.09 0.12 -0.09 0.13 -0.08 0.13 -0.08 0.14 -0.08 0.13 -0.07 0.13 -0.07 0.14 -0.07 0.14 -0.06 0.14 -0.07 0.13 -0.05 0.15 -0.06 0.14 -0.05 0.14 -0.05 0.14 -0.04 0.15 -0.05 0.14 -0.04 0.15 -0.03 0.15 -0.03 0.14 -0.03 0.15 -0.03 0.15 -0.02 0.15 -0.02 0.15 -0.01 0.15 -0.02 0.15 -0.01 0.15 0 0.16 0 0 0.78 -0.14 0 -0.13 0.01 -0.13 0.01 -0.14 0.01 -0.13 0.01 -0.13 0.02 -0.13 0.02 -0.13 0.02 -0.13 0.02 -0.13 0.03 -0.13 0.03 -0.13 0.04 -0.13 0.04 -0.13 0.04 -0.12 0.04 -0.13 0.04 -0.12 0.05 -0.13 0.05 -0.12 0.06 -0.12 0.06 -0.12 0.06 -0.12 0.06 -0.12 0.06 -0.12 0.07 -0.11 0.07 -0.12 0.08 -0.11 0.07 -0.11 0.08 -0.11 0.08 -0.11 0.09 -0.11 0.08 -0.11 0.09 -0.51 0zm0.51 0l-0.25 0.22 -0.26 -0.22 0.51 0z"/>
    </g>
    <g>
     <path class="fil4" d="M15.25 7.39c0,-0.22 0.18,-0.39 0.39,-0.39 0.22,0 0.39,0.17 0.39,0.39l-0.78 0zm0 11.57l0 -11.57 0.78 0 0 11.57 -0.78 0zm0.78 0c0,0.22 -0.17,0.39 -0.39,0.39 -0.21,0 -0.39,-0.17 -0.39,-0.39l0.78 0z"/>
    </g>
   </g>
   <g>
    <path class="fil3" d="M17.5 24.36c0.22,0 0.39,0.18 0.39,0.39 0,0.22 -0.17,0.39 -0.39,0.39l0 -0.78zm-1.2 0l1.2 0 0 0.78 -1.2 0 0 -0.78zm0 0.78c-0.21,0 -0.39,-0.17 -0.39,-0.39 0,-0.21 0.18,-0.39 0.39,-0.39l0 0.78z"/>
   </g>
  </g>
 </g>
</svg>